<?xml version="1.0" encoding="utf-8"?>
<!-- Generator: Adobe Illustrator 25.3.1, SVG Export Plug-In . SVG Version: 6.00 Build 0)  -->
<svg version="1.1" id="Шар_1" xmlns="http://www.w3.org/2000/svg" xmlns:xlink="http://www.w3.org/1999/xlink" x="0px" y="0px"
	 viewBox="0 0 431 184" style="enable-background:new 0 0 431 184;" xml:space="preserve">
<style type="text/css">
	.st0{fill:#EE7601;}
	.st1{fill:#FFFFFF;}
</style>
<path class="st0" d="M339,0H92C41.19,0,0,41.19,0,92v92h339c50.81,0,92-41.19,92-92v0C431,41.19,389.81,0,339,0z"/>
<g>
	<path class="st1" d="M100.51,108.74c0.86,0.15,1.49,0.9,1.49,1.77v20.48c-0.33,0.01-0.67,0.01-1,0.01c-5.33,0-10.4-1.09-15-3.07
		C72.47,122.11,63,108.66,63,93V55.81c0-1,0.81-1.81,1.81-1.81h19.38c1,0,1.81,0.81,1.81,1.81V91.5
		C86,100.14,92.27,107.32,100.51,108.74z"/>
	<path class="st1" d="M138.5,54.5C117.24,54.5,100,71.74,100,93s17.24,38.5,38.5,38.5S177,114.26,177,93S159.76,54.5,138.5,54.5z
		 M138.5,109.5c-9.11,0-16.5-7.39-16.5-16.5s7.39-16.5,16.5-16.5S155,83.89,155,93S147.61,109.5,138.5,109.5z"/>
	<path class="st1" d="M298.5,54.5C277.24,54.5,260,71.74,260,93s17.24,38.5,38.5,38.5S337,114.26,337,93S319.76,54.5,298.5,54.5z
		 M298.5,109.5c-9.11,0-16.5-7.39-16.5-16.5s7.39-16.5,16.5-16.5S315,83.89,315,93S307.61,109.5,298.5,109.5z"/>
	<path class="st1" d="M257,93c0-21.54-17.69-38.95-39.33-38.49c-19.53,0.41-35.91,15.73-37.53,35.2c-0.6,7.15,0.77,13.95,3.62,19.89
		c3.67,7.68,9.82,13.96,17.41,17.79c0.02,0.01,0.03,0.01,0.05,0.02c5.2,2.62,11.07,4.09,17.28,4.09c5.81,0,11.32-1.29,16.25-3.59
		c-1.38,8-8.35,14.09-16.75,14.09c-6.5,0-12.15-3.65-15.01-9.01c-1.39-2.62-4.73-3.46-7.14-1.74l-11.78,8.41
		c-0.68,0.49-0.95,1.4-0.59,2.16c6.08,13.08,19.47,22.18,35.02,22.18c19.89,0,36.27-14.89,38.29-34c0.14-1.32,0.21-2.65,0.21-4V97
		V93z M223.22,108.81c-1.5,0.45-3.08,0.69-4.72,0.69c-1.82,0-3.57-0.29-5.2-0.84c-6.56-2.18-11.3-8.37-11.3-15.66
		c0-0.46,0.02-0.92,0.06-1.37c0.69-8.47,7.79-15.13,16.44-15.13s15.75,6.66,16.44,15.13c0.04,0.45,0.06,0.91,0.06,1.37
		C235,100.47,230.03,106.79,223.22,108.81z"/>
	<path class="st1" d="M366,122c0,7.73-6.27,14-14,14s-14-6.27-14-14s6.27-14,14-14S366,114.27,366,122z M363,54h-23v29
		c0,12.7,10.3,23,23,23h0V54z"/>
</g>
</svg>
