<?xml version="1.0" encoding="utf-8"?>
<!-- Generator: Adobe Illustrator 22.0.1, SVG Export Plug-In . SVG Version: 6.00 Build 0)  -->
<svg version="1.1" id="Content" xmlns="http://www.w3.org/2000/svg" xmlns:xlink="http://www.w3.org/1999/xlink" x="0px" y="0px"
	 width="192px" height="192px" viewBox="0 0 192 192" enable-background="new 0 0 192 192" xml:space="preserve">
<rect id="bounding_box_14_" fill="none" width="192" height="192"/>
<g id="Campaign_Manager">
	<path fill="#34A853" d="M81.5,137.78c-7.11,7.11-19.34,7.83-27.23-0.06l-28.71,28.71c23.43,23.43,61.4,23.42,84.83,0
		s23.43-61.4,0-84.83l-28.84,28.84C89.36,118.24,88.87,130.41,81.5,137.78z"/>
	<path fill="#5BB974" d="M137.7,81.58c-7.27,7.27-19.52,7.81-27.31,0.02L81.6,110.39c23.43,23.43,61.4,23.42,84.83,0
		s23.43-61.4,0-84.83l-28.75,28.75C145.59,62.23,144.84,74.44,137.7,81.58z"/>
	<path fill="#1E8E3E" d="M166.43,25.57L166.43,25.57L166.43,25.57L166.43,25.57L166.43,25.57c-23.43-23.43-61.4-23.42-84.83,0
		c-23.42,23.42-23.43,61.4,0,84.83l28.79-28.79c-8.02-8.02-7.1-20.18,0.04-27.32c7.67-7.67,19.89-7.32,27.25,0.04l0,0
		c7.94,7.94,20.81,7.94,28.75,0C174.37,46.38,174.37,33.51,166.43,25.57z"/>
	<path fill="#5BB974" d="M110.39,81.61L110.39,81.61L110.39,81.61L110.39,81.61L110.39,81.61c-23.43-23.43-61.4-23.42-84.83,0
		c-23.42,23.42-23.42,61.4,0,84.82l0,0l0,0l0,0l0,0c8.52,8.52,22.33,8.52,30.85,0c8.52-8.52,6.37-20.21-2.15-28.73l0,0
		c-6.86-6.86-8.23-19.02-0.04-27.22c6.67-6.67,18.61-8.57,27.33-0.05l0,0c8.52,8.52,21.33,7.55,28.94-0.05
		C117.83,103.06,118.91,90.12,110.39,81.61z"/>
</g>
</svg>
