<svg xmlns="http://www.w3.org/2000/svg" height="800" width="1200" viewBox="-14.4345 -5.43 125.099 32.58"><g fill="none"><path fill="#000" d="M14.64 4.72h-4.18v17H5.23v-17H.01L0 .06h16.12zm42.89 0h-4.54v17h-5.22v-17h-5.24L42.52.06h16.49zm-35.26 17h-5.13L17.1 6.95h5.17zm7.21-11.63l5.12-5h6.16l-6.47 6.28 7.25 10.35h-5.69l-4.84-7.19-1.53 1.48v5.71h-5.16V0h5.16zm54.75 0l5.11-5h6.16l-6.47 6.28 7.2 10.35h-5.69l-4.83-7.19-1.48 1.48v5.71h-5.17L79.01 0h5.22z"/><circle r="2.6" cy="2.66" cx="19.69" fill="#000"/><path fill="#25F4EE" d="M58.35 12.88c.0016-4.6134 3.5506-8.4499 8.15-8.81h-.77c-4.6743.2726-8.3252 4.1427-8.3252 8.825 0 4.6822 3.6509 8.5524 8.3252 8.825h.77c-4.6109-.361-8.1641-4.215-8.15-8.84z"/><path fill="#FE2C55" d="M68.51 4.04h-.78c4.5845.3787 8.1123 4.21 8.1123 8.81 0 4.6-3.5278 8.4313-8.1123 8.81h.78c4.8822 0 8.84-3.9578 8.84-8.84 0-4.8822-3.9578-8.84-8.84-8.84z"/><path fill="#000" d="M67.11 17.18c-2.3748 0-4.3-1.9252-4.3-4.3 0-2.3748 1.9252-4.3 4.3-4.3 2.3748 0 4.3 1.9252 4.3 4.3-.0055 2.3725-1.9275 4.2945-4.3 4.3zm0-13.14c-4.8822 0-8.84 3.9578-8.84 8.84 0 4.8822 3.9578 8.84 8.84 8.84 4.8822 0 8.84-3.9578 8.84-8.84a8.84 8.84 0 00-8.84-8.84z"/></g></svg>